{
  "accessors": [
    {
      "bufferView": 2,
      "componentType": 5126,
      "count": 550,
      "max": [
        67.318138122558594,
        18.380119323730469,
        107.33625030517578
      ],
      "min": [
        -67.318153381347656,
        -21.430751800537109,
        -1.5748031139373779
      ],
      "type": "VEC3"
    },
    {
      "bufferView": 2,
      "byteOffset": 6600,
      "componentType": 5126,
      "count": 550,
      "max": [
        1,
        1,
        1
      ],
      "min": [
        -1,
        -1,
        -1
      ],
      "type": "VEC3"
    },
    {
      "bufferView": 1,
      "componentType": 5126,
      "count": 550,
      "max": [
        1,
        1
      ],
      "min": [
        -0.027777791023254395,
        -4.9090697729070598e-08
      ],
      "type": "VEC2"
    },
    {
      "bufferView": 0,
      "componentType": 5125,
      "count": 1116,
      "max": [
        549
      ],
      "min": [
        0
      ],
      "type": "SCALAR"
    },
    {
      "bufferView": 2,
      "byteOffset": 13200,
      "componentType": 5126,
      "count": 84,
      "max": [
        78.740150451660156,
        19.685037612915039,
        165.01777648925781
      ],
      "min": [
        -78.740264892578125,
        -19.685041427612305,
        79.162307739257812
      ],
      "type": "VEC3"
    },
    {
      "bufferView": 2,
      "byteOffset": 14208,
      "componentType": 5126,
      "count": 84,
      "max": [
        1,
        1,
        1
      ],
      "min": [
        -1,
        -1,
        -1
      ],
      "type": "VEC3"
    },
    {
      "bufferView": 1,
      "byteOffset": 4400,
      "componentType": 5126,
      "count": 84,
      "max": [
        1,
        1
      ],
      "min": [
        0,
        0
      ],
      "type": "VEC2"
    },
    {
      "bufferView": 0,
      "byteOffset": 4464,
      "componentType": 5125,
      "count": 138,
      "max": [
        83
      ],
      "min": [
        0
      ],
      "type": "SCALAR"
    },
    {
      "bufferView": 2,
      "byteOffset": 15216,
      "componentType": 5126,
      "count": 4,
      "max": [
        78.74005126953125,
        12.631745338439941,
        165.00772094726562
      ],
      "min": [
        -78.740264892578125,
        12.631740570068359,
        105.96977233886719
      ],
      "type": "VEC3"
    },
    {
      "bufferView": 2,
      "byteOffset": 15264,
      "componentType": 5126,
      "count": 4,
      "max": [
        -1.8167495952070567e-08,
        -1,
        3.2307163166933606e-08
      ],
      "min": [
        -2.4223329120331982e-08,
        -1,
        1.6153581583466803e-08
      ],
      "type": "VEC3"
    },
    {
      "bufferView": 1,
      "byteOffset": 5072,
      "componentType": 5126,
      "count": 4,
      "max": [
        0.99799996614456177,
        0.68894672393798828
      ],
      "min": [
        0.0020000000949949026,
        0.31544667482376099
      ],
      "type": "VEC2"
    },
    {
      "bufferView": 0,
      "byteOffset": 5016,
      "componentType": 5125,
      "count": 6,
      "max": [
        3
      ],
      "min": [
        0
      ],
      "type": "SCALAR"
    }
  ],
  "asset": {
    "extras": {
      "author": "Anthony Yanez (https://sketchfab.com/paulyanez)",
      "license": "CC-BY-4.0 (http://creativecommons.org/licenses/by/4.0/)",
      "source": "https://sketchfab.com/3d-models/low-poly-ad-billboard-864b8ce5d520478481198d1face5a7e5",
      "title": "Low poly Ad Billboard"
    },
    "generator": "Sketchfab-7.75.0",
    "version": "2.0"
  },
  "bufferViews": [
    {
      "buffer": 0,
      "byteLength": 5040,
      "byteOffset": 0,
      "name": "floatBufferViews",
      "target": 34963
    },
    {
      "buffer": 0,
      "byteLength": 5104,
      "byteOffset": 5040,
      "byteStride": 8,
      "name": "floatBufferViews",
      "target": 34962
    },
    {
      "buffer": 0,
      "byteLength": 15312,
      "byteOffset": 10144,
      "byteStride": 12,
      "name": "floatBufferViews",
      "target": 34962
    }
  ],
  "buffers": [
    {
      "byteLength": 25456,
      "uri": "scene.bin"
    }
  ],
  "images": [
    {
      "uri": "textures/Billboard_Texture_baseColor.png"
    }
  ],
  "materials": [
    {
      "doubleSided": true,
      "emissiveFactor": [
        0,
        0,
        0
      ],
      "name": "Billboard_Mat_1",
      "pbrMetallicRoughness": {
        "baseColorFactor": [
          0.28235300000000002,
          0.28235300000000002,
          0.28235300000000002,
          1
        ],
        "metallicFactor": 1,
        "roughnessFactor": 0.72554113210000004
      }
    },
    {
      "doubleSided": true,
      "emissiveFactor": [
        0,
        0,
        0
      ],
      "name": "Billboard_Mat_2",
      "pbrMetallicRoughness": {
        "baseColorFactor": [
          0.066666699999999995,
          0.066666699999999995,
          0.066666699999999995,
          1
        ],
        "metallicFactor": 1,
        "roughnessFactor": 0.89297135959999996
      }
    },
    {
      "doubleSided": true,
      "emissiveFactor": [
        0,
        0,
        0
      ],
      "name": "Billboard_Texture",
      "pbrMetallicRoughness": {
        "baseColorFactor": [
          1,
          1,
          1,
          1
        ],
        "baseColorTexture": {
          "index": 0,
          "texCoord": 0
        },
        "metallicFactor": 1,
        "roughnessFactor": 0.89297135959999996
      }
    }
  ],
  "meshes": [
    {
      "name": "Billboard_Billboard Mat 1_0",
      "primitives": [
        {
          "attributes": {
            "NORMAL": 1,
            "POSITION": 0,
            "TEXCOORD_0": 2
          },
          "indices": 3,
          "material": 0,
          "mode": 4
        }
      ]
    },
    {
      "name": "Billboard_Billboard Mat 2_0",
      "primitives": [
        {
          "attributes": {
            "NORMAL": 5,
            "POSITION": 4,
            "TEXCOORD_0": 6
          },
          "indices": 7,
          "material": 1,
          "mode": 4
        }
      ]
    },
    {
      "name": "Billboard_Billboard Texture_0",
      "primitives": [
        {
          "attributes": {
            "NORMAL": 9,
            "POSITION": 8,
            "TEXCOORD_0": 10
          },
          "indices": 11,
          "material": 2,
          "mode": 4
        }
      ]
    }
  ],
  "nodes": [
    {
      "children": [
        1
      ],
      "name": "RootNode (gltf orientation matrix)",
      "rotation": [
        -0.70710678118654746,
        -0,
        -0,
        0.70710678118654757
      ]
    },
    {
      "children": [
        2
      ],
      "name": "RootNode (model correction matrix)"
    },
    {
      "children": [
        3
      ],
      "matrix": [
        1,
        0,
        0,
        0,
        0,
        0,
        1,
        0,
        0,
        -1,
        0,
        0,
        0,
        0,
        0,
        1
      ],
      "name": "ad_billboard.FBX"
    },
    {
      "children": [
        4
      ],
      "name": "RootNode"
    },
    {
      "children": [
        5
      ],
      "matrix": [
        1,
        0,
        0,
        0,
        0,
        2.2204460492503131e-16,
        -1,
        0,
        0,
        1,
        2.2204460492503131e-16,
        0,
        1.8239021301269531e-05,
        0,
        -2.1515363641810836e-06,
        1
      ],
      "name": "Billboard"
    },
    {
      "children": [
        6,
        7,
        8
      ],
      "matrix": [
        1,
        0,
        -0,
        0,
        0,
        1,
        0,
        0,
        0,
        0,
        1,
        0,
        0,
        -5.6407913007205934e-08,
        1.2904626131057739,
        1
      ],
      "name": ""
    },
    {
      "mesh": 0,
      "name": "Billboard_Billboard Mat 1_0"
    },
    {
      "mesh": 1,
      "name": "Billboard_Billboard Mat 2_0"
    },
    {
      "mesh": 2,
      "name": "Billboard_Billboard Texture_0"
    }
  ],
  "samplers": [
    {
      "magFilter": 9729,
      "minFilter": 9987,
      "wrapS": 10497,
      "wrapT": 10497
    }
  ],
  "scene": 0,
  "scenes": [
    {
      "name": "OSG_Scene",
      "nodes": [
        0
      ]
    }
  ],
  "textures": [
    {
      "sampler": 0,
      "source": 0
    }
  ]
}

